<svg
  height="100%"
  viewBox="0 0 115 38"
  version="1.1"
  xmlns="http://www.w3.org/2000/svg"
  xmlnsXlink="http://www.w3.org/1999/xlink"
>
  <defs>
    <path
      d="M56.1401359,34.5339171 C56.1401359,34.6885892 56.2775703,34.8138331 56.4471103,34.8138331 L63.7580299,34.8138331 C63.9275699,34.8138331 64.0650043,34.6885892 64.0650043,34.5339171 L64.0650043,2.09337264 C64.0650043,1.9387006 63.9275699,1.81331721 63.7580299,1.81331721 L56.4471103,1.81331721 C56.2775703,1.81331721 56.1401359,1.9387006 56.1401359,2.09337264 L56.1401359,34.5339171 Z M2.39201322,34.5339171 C2.39201322,34.6885892 2.52944764,34.8138331 2.69898764,34.8138331 L10.0099073,34.8138331 C10.1794473,34.8138331 10.3168817,34.6885892 10.3168817,34.5339171 L10.3168817,14.1114885 C10.3168817,13.9568164 10.1794473,13.8315725 10.0099073,13.8315725 L2.69898764,13.8315725 C2.52944764,13.8315725 2.39201322,13.9568164 2.39201322,14.1114885 L2.39201322,34.5339171 Z M34.3106077,27.703619 C29.0144541,28.6524323 23.9107932,25.0711258 22.9336852,19.720505 C21.9565771,14.3697447 25.4703077,9.24478614 30.7664613,8.29597284 C36.0626149,7.34729901 41.1662758,10.928466 42.1433838,16.2792263 C43.1204918,21.6298471 39.6067613,26.7548057 34.3106077,27.703619 Z M51.3154415,29.238903 L47.6986351,26.3635928 C47.6240037,26.3043181 47.5754229,26.2228677 47.5568354,26.1354202 C47.5381072,26.0478331 47.5492315,25.9542488 47.5941511,25.8705669 C49.3239097,22.6514636 50.0141797,18.858163 49.3088426,14.9955459 C47.6383667,5.84771933 38.7758181,-0.22298424 29.5137804,1.4362884 C20.2517426,3.09542158 14.0977504,11.8563588 15.7682263,21.0041854 C17.4387023,30.1518725 26.3012508,36.2225761 35.5632886,34.5634429 C38.1382126,34.1020767 40.4722038,33.0910598 42.4652845,31.6761383 C42.6125759,31.5716754 42.8111236,31.5748832 42.95236,31.6871565 L46.8319252,34.7713924 C46.9634454,34.8759948 47.1581911,34.8521455 47.2667587,34.7181149 L51.3569816,29.6709805 C51.4655491,29.53695 51.4469617,29.3435053 51.3154415,29.238903 Z M110.980904,1.81338695 L103.669985,1.81338695 C103.500445,1.81338695 103.36301,1.93877033 103.36301,2.09330291 L103.36301,34.5339869 C103.36301,34.6885194 103.500445,34.8139028 103.669985,34.8139028 L110.980904,34.8139028 C111.150444,34.8139028 111.287879,34.6885194 111.287879,34.5339869 L111.287879,2.09330291 C111.287879,1.93877033 111.150444,1.81338695 110.980904,1.81338695 Z M6.35447562,1.16649795 C3.79053516,1.16649795 1.71212121,3.22507274 1.71212121,5.76453952 C1.71212121,8.3040063 3.79053516,10.3625811 6.35447562,10.3625811 C8.91841608,10.3625811 10.99683,8.3040063 10.99683,5.76453952 C10.99683,3.22507274 8.91841608,1.16649795 6.35447562,1.16649795 Z M99.4926684,1.81338695 L91.7022773,1.81338695 C91.5680816,1.81338695 91.4445877,1.88089035 91.3815031,1.98911894 L84.142821,14.7370804 C84.142821,14.7370804 84.1032545,14.809158 84.044875,14.8284854 L84.0187639,14.8331751 C83.9645858,14.8317107 83.9219719,14.7783896 83.9040512,14.7518206 L83.8948476,14.7370804 L83.8948476,14.7370804 L76.6561656,1.98911894 C76.5930809,1.88089035 76.4695871,1.81338695 76.3352506,1.81338695 L68.5450002,1.81338695 C68.3365956,1.81338695 68.0972119,2.02607845 68.2684416,2.3435118 L79.8470097,21.6393031 C79.9578303,21.8256348 80.0162681,22.0379079 80.0162681,22.2542256 L80.0162681,34.47792 C80.0162681,34.6634149 80.1680656,34.8139028 80.3554889,34.8139028 L87.6821797,34.8139028 C87.8694623,34.8139028 88.0214005,34.6634149 88.0214005,34.47792 L88.0214005,22.2542256 C88.0214005,22.0379079 88.0798383,21.8256348 88.1906589,21.6393031 L99.769227,2.3435118 C99.940316,2.02607845 99.7009323,1.81338695 99.4926684,1.81338695 Z"
      id="logo-path-1"
    ></path>
    <filter
      x="-2.7%"
      y="-8.9%"
      width="105.5%"
      height="117.8%"
      filterUnits="objectBoundingBox"
      id="filter-2"
    >
      <feOffset
        dx="0"
        dy="0"
        in="SourceAlpha"
        result="shadowOffsetOuter1"
      ></feOffset>
      <feGaussianBlur
        stdDeviation="1"
        in="shadowOffsetOuter1"
        result="shadowBlurOuter1"
      ></feGaussianBlur>
      <feComposite
        in="shadowBlurOuter1"
        in2="SourceAlpha"
        operator="out"
        result="shadowBlurOuter1"
      ></feComposite>
      <feColorMatrix
        values="0 0 0 0 0   0 0 0 0 0   0 0 0 0 0  0 0 0 0.5 0"
        type="matrix"
        in="shadowBlurOuter1"
      ></feColorMatrix>
    </filter>
  </defs>
  <g
    id="播放器"
    stroke="none"
    stroke-width="1"
    fill="none"
    fill-rule="evenodd"
  >
    <g id="形状" transform="translate(1.000000, 1.000000)">
      <use
        fill="black"
        fill-opacity="1"
        filter="url(#filter-2)"
        xlinkHref="#logo-path-1"
      ></use>
      <use
        fill-opacity="0.6"
        fill="#FFFFFF"
        fill-rule="evenodd"
        xlinkHref="#logo-path-1"
      ></use>
    </g>
  </g>
</svg>